<svg id="Grupo_773" data-name="Grupo 773" xmlns="http://www.w3.org/2000/svg" width="227.287" height="116.932" viewBox="0 0 227.287 116.932">
  <g id="Grupo_50" data-name="Grupo 50" transform="translate(54.161 72.229)">
    <g id="Grupo_49" data-name="Grupo 49">
      <path id="Trazado_41" data-name="Trazado 41" d="M102.666,133.441a4.049,4.049,0,0,1-1.089,1.457,5.792,5.792,0,0,1-2.473,1.147c-2.5.533-3.736-.649-3.736-2.488a3.583,3.583,0,0,1,1.141-2.694,4.771,4.771,0,0,1,2.569-1.325,4.338,4.338,0,0,1,2.342.079,2.432,2.432,0,0,1,1.124.969L101.6,131a1.427,1.427,0,0,0-.67-.618,3.146,3.146,0,0,0-1.82-.076,3.179,3.179,0,0,0-2.822,3.034,2.115,2.115,0,0,0,.636,1.623,2.588,2.588,0,0,0,2.239.312,3.788,3.788,0,0,0,1.959-.95,2.809,2.809,0,0,0,.618-.876Z" transform="translate(-95.368 -100.5)" fill="white"/>
      <path id="Trazado_42" data-name="Trazado 42" d="M102.975,128.92l5.678-1.208v.761l-4.807,1.024v1.847l4.675-1v.727l-4.675,1v2.084l5.025-1.069v.761l-5.9,1.254Z" transform="translate(-92.796 -101.075)" fill="white"/>
      <path id="Trazado_43" data-name="Trazado 43" d="M109.67,127.443l4.18-.89a2.2,2.2,0,0,1,1.725.132,1.341,1.341,0,0,1,.549,1.2,2.226,2.226,0,0,1-1.655,2.1l2.264,2.126-1.14.244-2.082-2.026-2.969.632v2.469l-.871.186Zm.863.561v2.241l3.039-.648a2.078,2.078,0,0,0,1.437-.777,1.252,1.252,0,0,0,.209-.7,1.02,1.02,0,0,0-.183-.618c-.278-.387-.723-.293-1.123-.215Z" transform="translate(-90.532 -101.504)" fill="white"/>
      <path id="Trazado_44" data-name="Trazado 44" d="M121.984,124.931l.957-.2-2.9,6.8-.879.186-2.952-5.551.966-.206,2.142,4.113a3.2,3.2,0,0,1,.3.707,2.579,2.579,0,0,1,.226-.721Z" transform="translate(-88.32 -102.084)" fill="white"/>
      <path id="Trazado_45" data-name="Trazado 45" d="M123.055,124.647l5.678-1.208v.761l-4.807,1.022v1.848l4.677-1v.727l-4.677,1v2.084l5.025-1.071v.761l-5.9,1.255Z" transform="translate(-86.006 -102.52)" fill="white"/>
      <path id="Trazado_46" data-name="Trazado 46" d="M129.758,123.241l5.687-1.21v.735l-4.825,5.7,4.912-1.045v.771l-6.139,1.306v-.727l4.816-5.717-4.451.947Z" transform="translate(-83.863 -102.996)" fill="white"/>
      <path id="Trazado_47" data-name="Trazado 47" d="M138.662,121.235l.922-.2,3.153,5.519-1,.213-.749-1.364-3.779.8-.749,1.682-.975.207Zm.653,1.208c-.044-.1-.1-.189-.139-.285a2.128,2.128,0,0,1-.071-.222c-.025.084-.051.178-.087.273-.043.123-.1.24-.147.364l-1.3,2.841,3.039-.646Z" transform="translate(-81.803 -103.332)" fill="white"/>
      <path id="Trazado_48" data-name="Trazado 48" d="M149.059,119.022l.923-.2,3.153,5.518-1,.213-.749-1.364-3.779.8-.749,1.683-.976.207Zm.654,1.21c-.044-.1-.1-.19-.14-.286a2.209,2.209,0,0,1-.07-.221c-.025.084-.052.177-.087.272-.043.123-.1.24-.147.364l-1.3,2.841,3.039-.646Z" transform="translate(-78.287 -104.08)" fill="white"/>
      <path id="Trazado_49" data-name="Trazado 49" d="M153.123,118.2l4.18-.89a2.192,2.192,0,0,1,1.725.132,1.339,1.339,0,0,1,.549,1.2,2.228,2.228,0,0,1-1.655,2.1l2.264,2.126-1.14.244-2.082-2.026-2.969.632v2.469l-.871.185Zm.863.561V121l3.039-.648a2.08,2.08,0,0,0,1.437-.779,1.247,1.247,0,0,0,.209-.7,1.018,1.018,0,0,0-.183-.617c-.278-.387-.723-.293-1.123-.217Z" transform="translate(-75.838 -104.631)" fill="white"/>
      <path id="Trazado_50" data-name="Trazado 50" d="M166.325,120.735c-.112.13-.209.246-.339.379a4.982,4.982,0,0,1-2.343,1.182c-2.125.452-3.518-.731-3.518-2.5a3.866,3.866,0,0,1,.531-1.881,4.839,4.839,0,0,1,3.135-2.129,3.559,3.559,0,0,1,2.664.316,1.875,1.875,0,0,1,.6.626l-.862.446a1.5,1.5,0,0,0-.392-.38,2.576,2.576,0,0,0-1.942-.261,3.258,3.258,0,0,0-2.8,3.012,2.258,2.258,0,0,0,.417,1.346,2.371,2.371,0,0,0,2.361.628,3.582,3.582,0,0,0,2.029-1.246,2.238,2.238,0,0,0,.488-1.224l-2.708.577v-.736l3.439-.732v3.265l-.757.162Z" transform="translate(-73.471 -105.144)" fill="white"/>
      <path id="Trazado_51" data-name="Trazado 51" d="M167.868,115.11l5.678-1.208v.761l-4.807,1.024v1.847l4.677-1v.727l-4.677,1v2.084l5.025-1.069v.761l-5.9,1.254Z" transform="translate(-70.853 -105.745)" fill="white"/>
      <path id="Trazado_52" data-name="Trazado 52" d="M175.461,113.538l4.144,3.538a6.876,6.876,0,0,1,.654.614,8.289,8.289,0,0,1-.054-.9v-4.263l.836-.178v6.18l-.854.182-4.354-3.7c-.226-.206-.3-.278-.478-.467a9.655,9.655,0,0,1,.043,1.058v4.132l-.836.178v-6.181Z" transform="translate(-68.589 -106.269)" fill="white"/>
      <path id="Trazado_53" data-name="Trazado 53" d="M181.337,112.256l5.9-1.255v.736l-2.517.535v5.445l-.871.185v-5.445l-2.508.534Z" transform="translate(-66.298 -106.726)" fill="white"/>
      <path id="Trazado_54" data-name="Trazado 54" d="M187.662,110.641l.9-.191v6.181l-.9.19Z" transform="translate(-64.159 -106.912)" fill="white"/>
      <path id="Trazado_55" data-name="Trazado 55" d="M191.877,110.044l4.146,3.538a7.056,7.056,0,0,1,.653.614,8.6,8.6,0,0,1-.052-.9v-4.263l.836-.178v6.181l-.854.181-4.354-3.7c-.226-.206-.3-.278-.479-.467a9.635,9.635,0,0,1,.044,1.058v4.132l-.836.178v-6.18Z" transform="translate(-63.037 -107.451)" fill="white"/>
      <path id="Trazado_56" data-name="Trazado 56" d="M200.841,108l.923-.2,3.153,5.517-1,.213-.748-1.364-3.78.8-.748,1.683-.976.207Zm.653,1.21c-.043-.1-.1-.19-.139-.285a1.92,1.92,0,0,1-.07-.222c-.027.084-.052.178-.087.273-.043.122-.1.238-.149.364l-1.3,2.841,3.039-.648Z" transform="translate(-60.778 -107.806)" fill="white"/>
    </g>
  </g>
  <path id="Trazado_57" data-name="Trazado 57" d="M151.6,70.972a7.653,7.653,0,0,1,5.725-7.779c3.324-.7,6.22,1.637,6.418,5.225a7.623,7.623,0,0,1-5.694,7.765C154.705,76.892,151.815,74.56,151.6,70.972ZM82.522,152.541c4,.5,9.983,1.318,14.286-3.915-.682,9.715-6.42,16.4-15.316,16.145-8.912-.262-14.345-.023-18.068,4.9l-.786,1.093c.779-9.156,3.454-14.936,10.844-17.187C66.905,152.327,50.056,141.3,56.23,107.99c3.962-21.38,15.185-33.456,24.71-37.068-3.155,3.345-4.831,5.692-8.081,11.983-10.043,19.443-8.952,54.718,6.811,52.058,15.789-2.663,23-28.064,20.887-45.964-2.114-18.127-13.63-11.144-16.072-2.58,3.284-4.053,12.221-.843,9.929,16.925-3.115,24.14-23.179,27.04-21.341,1.752,1.9-22.628,11.727-32.277,19.038-34.457,7.753-2.217,24.6,7.666,17.251,45.647C105.332,133.237,98.27,147.823,82.522,152.541ZM82.831,95.7c.118,2.461,1.447,3.929,3.005,3.28,1.539-.653,2.722-3.2,2.611-5.652-.1-2.489-1.432-3.98-3-3.32C83.9,90.695,82.729,93.22,82.831,95.7ZM264.7,109.734c-5.429.929-8.106-1.7-9.42-4.756a36.625,36.625,0,0,1-5.386,6.137v.013c-4.667,3.566-10.458,4.2-13.159,2.552-7.067-4.309-5.937-17.08-5.937-17.08s-5.156,13.591-9.859,19.687c-5.506,7.2-10.045,3.113-8.972-3.6,1.564-9.782,5.124-33.393,5.124-33.393.85-4.956-1.388-4.91-3.327-1.323a23.651,23.651,0,0,0-3.155,9.218L205.58,121.17l-10.562,2.244L201.157,81.4c.6-3.443-1.722-3.288-3.827-.082a20.976,20.976,0,0,0-2.414,6.372s-5.1,35.909-5.389,36.877l-10.669,2.267,3.472-23.594c-2.832,8.457-6.913,17.278-11.2,23.3-4.674,6.572-9.566,4.542-8.944-1.056l2.184-17.817c-1.608,5.068-7.27,17.368-11.649,23.261-4.674,6.325-8.871,3.424-8.359-1.8l2.457-18.148c-4.4,10.884-8.357,18.8-11.769,23.808-3.972,5.833-9.034,3.688-8.413-2.059l1.236-11.877c-1.476,4.522-6.307,13.335-8.722,16.906-3.772,5.575-10.086,6.434-8.449-4.489l6.4-44.623L127.652,86.4c-.389,1.622-4.6,32.529-5.216,35.984-.6,3.439,1.378,2.375,2.56.483a48.272,48.272,0,0,0,4.669-12.991l3.489-24.646,10.559-2.244c-.112.368-3.626,27.51-4.793,34-1.113,6.2,1.633,4.413,3.213,1.243,1.713-3.423,4.275-11.372,5.636-15.862s3.311-20.943,3.311-20.943l10.55-2.241c-.7,5.239-4.865,34.657-4.868,34.674-.8,4.548,1.121,4.115,2.732,1.349,4.35-8.195,6.644-19.133,7.306-22.351.654-3.2,4.733-33.032,4.733-33.032l10.322-2.18c-.448,2.526-7.271,51.236-7.271,51.236-1.041,7.077,2.134,4.611,3.826.3.88-2.244,4.752-12.869,5.066-13.748l3.179-21.562,10.306-2.191-1.436,9.259A52.148,52.148,0,0,1,201,73.063c5.22-5.951,10.19-6.976,10.693.385a38.629,38.629,0,0,1,.015,4.441,56.71,56.71,0,0,1,4.176-6.61c7.08-9.641,13.447-7.823,12.735.625,0,0-3.9,25.963-4.144,27.677-.431,3.09.887,4.617,2.4,2.069,0,0,2.975-5.362,3.749-9.754,2.2-13.1,7.172-30.314,19.76-32.715s11.8,15.311,9.776,20.757c-1.967,5.3-5.717,13.047-17.841,14.222,0,0-.343,2.383-.34,2.644a58.257,58.257,0,0,0-.452,8.12c.252,2.2,2.287,7.526,7.771,4.437,1.27-.727,3.179-2.956,5.4-6.027a18.52,18.52,0,0,1-.624-3.741c-.035-.238-.059-.484-.071-.735a7.625,7.625,0,0,1,.031-1.034c.005-.154.009-.245.009-.245l.012.024a8.483,8.483,0,0,1,6.3-7.28,5.821,5.821,0,0,1,2.783.075c1.992-3.264,3.946-6.573,5.7-9.6a30.963,30.963,0,0,1-3.165-16.06c.985-9.566,8.671-10.721,8.671-10.721s5.469-1.52,6.589,4.006c.678,3.355-2.011,8.6-4.207,12.169-.056.1-.15.273-.28.507,1.944,4.322,5.345,12.674,5.694,18.709C282.669,98.357,276.245,107.759,264.7,109.734ZM242.584,92.353c-.029,0,.975-.107,2.655-.454,2.22-.458,3.408-2.963,3.624-4.947,0,0,2.951-19.77,3.113-22.256a6.241,6.241,0,0,0-.017-1.014,2.115,2.115,0,0,0-1.67-2.126,3.013,3.013,0,0,0-1.455.305,3.118,3.118,0,0,0-.938.616,5.53,5.53,0,0,0-1.329,2.288,13.887,13.887,0,0,0-.549,2.446S243.654,83.991,242.584,92.353ZM273.8,94.946c-.253-3.005-.005-4.294-4.1-12.441-1.582,2.688-3.328,5.6-5.132,8.517a6.111,6.111,0,0,1,2.737,5.041,8.48,8.48,0,0,1-6.319,8.519,5.611,5.611,0,0,1-4.55-.918,6.606,6.606,0,0,0,7.819,3.969C271.168,106.272,274.187,99.6,273.8,94.946Zm2.037-26.487s3.612-7.107,2.873-9.957a2.486,2.486,0,0,0-3.713-1.86c-4.385,2.389.269,11.509.269,11.509.084.169.2.415.348.716Z" transform="translate(-54.893 -53.829)" fill="white"/>
</svg>